/vscmnt/brussel_pixiu_data/_data_brussel/112/vsc11236/PredSimResults/SUBJ10mtu3D/worker5.mot
version=1
nRows=7
nColumns=50
inDegrees=yes
endheader
                time	         pelvis_tilt	         pelvis_list	     pelvis_rotation	           pelvis_tx	           pelvis_ty	           pelvis_tz	       hip_flexion_r	     hip_adduction_r	      hip_rotation_r	        knee_angle_r	       ankle_angle_r	         mtp_angle_r	       hip_flexion_l	     hip_adduction_l	      hip_rotation_l	        knee_angle_l	       ankle_angle_l	         mtp_angle_l	    lumbar_extension	      lumbar_bending	     lumbar_rotation	 ercspn_r/activation	 intobl_r/activation	 extobl_r/activation	    abd_r/activation	    add_r/activation	hamstrings_r/activation	bifemsh_r/activation	glut_max_r/activation	iliopsoas_r/activation	rect_fem_r/activation	  vasti_r/activation	gastroc_r/activation	 soleus_r/activation	tib_ant_r/activation	 ercspn_l/activation	 intobl_l/activation	 extobl_l/activation	    abd_l/activation	    add_l/activation	hamstrings_l/activation	bifemsh_l/activation	glut_max_l/activation	iliopsoas_l/activation	rect_fem_l/activation	  vasti_l/activation	gastroc_l/activation	 soleus_l/activation	tib_ant_l/activation	
          0.00000000	         -4.71047139	         -0.85636570	          7.40521690	          0.00000000	          0.82553139	         -0.01198388	         31.11766932	         -1.77770652	         -4.78147262	         -7.23211882	          5.40264406	          0.25392237	        -15.51939388	         -0.42463071	          5.13823032	         -6.23053992	          6.66952130	         27.53882941	         -6.85093563	         -0.56186305	         -4.95504068	          0.11673400	          0.15364323	          0.01000001	          0.02273602	          0.11874837	          0.10518771	          0.11234864	          0.02175318	          0.05485612	          0.01000007	          0.01183617	          0.01000000	          0.00999999	          0.30719260	          0.07436707	          0.00999999	          0.01000000	          0.05651602	          0.01000001	          0.01911363	          0.16970025	          0.03254473	          0.33154839	          0.01000015	          0.01000000	          0.23305562	          0.22117853	          0.02323026	
          0.01101712	         -4.73942249	         -0.81279694	          7.40275868	          0.01558410	          0.82436097	         -0.01174534	         30.72213223	         -1.48898418	         -3.88373266	         -8.21253401	          5.10064009	          0.25407750	        -15.44700619	         -0.38290860	          4.67154108	         -8.26124614	          6.03559579	         29.16940994	         -6.64442260	         -0.15150661	         -5.21728333	          0.09862467	          0.12980805	          0.01000001	          0.01920891	          0.16055474	          0.08886959	          0.12275151	          0.07207975	          0.04634610	          0.01000002	          0.01000000	          0.01701022	          0.01460342	          0.30906655	          0.11353430	          0.01000000	          0.01000000	          0.04774850	          0.02218313	          0.02425338	          0.14337409	          0.02749596	          0.31569061	          0.01000003	          0.01137985	          0.19690092	          0.21037853	          0.01962647	
          0.02203425	         -4.75664491	         -0.78884946	          7.35877077	          0.03143865	          0.82330319	         -0.01143712	         30.21457183	         -1.21452031	         -2.97500053	         -9.20720436	          4.72258216	          0.24860068	        -15.25895721	         -0.36024567	          4.16272976	        -10.53401178	          5.29804080	         30.67544796	         -6.41722351	          0.28806658	         -5.45866517	          0.09766888	          0.10967051	          0.01000000	          0.06130401	          0.14394844	          0.07576316	          0.10370870	          0.09846782	          0.03915628	          0.01000000	          0.00999999	          0.01437137	          0.01233794	          0.36905566	          0.12283446	          0.00999999	          0.01000000	          0.04034112	          0.01874179	          0.02049107	          0.12113199	          0.02323042	          0.29481050	          0.01000006	          0.01000001	          0.16635503	          0.19439225	          0.01658175	
          0.03305137	         -4.76409187	         -0.77132862	          7.26931640	          0.04735471	          0.82249548	         -0.01102516	         29.67045595	         -0.93457297	         -2.16655789	        -10.10467562	          4.18763954	          0.23907734	        -14.88764083	         -0.34257608	          3.61020632	        -13.13067411	          4.44053316	         31.96275015	         -6.19405422	          0.73477673	         -5.67265058	          0.10254695	          0.09265696	          0.01000000	          0.10147943	          0.16465365	          0.06400979	          0.08762003	          0.11392911	          0.03308184	          0.01000000	          0.02351985	          0.01214189	          0.01042392	          0.40202908	          0.14504362	          0.00999999	          0.01000000	          0.03408287	          0.01583434	          0.02100254	          0.10234039	          0.01962661	          0.27608578	          0.01000003	          0.01086135	          0.14054782	          0.17563198	          0.01400937	
          0.04406849	         -4.76233750	         -0.76272906	          7.13875053	          0.06318224	          0.82206416	         -0.01051670	         29.14852235	         -0.64087058	         -1.47001860	        -11.03908287	          3.68650454	          0.22671729	        -14.28596958	         -0.33597815	          3.00854537	        -16.09991039	          3.46803412	         32.86411473	         -5.98880897	          1.18915991	         -5.85772234	          0.10014768	          0.07828278	          0.01000000	          0.12424539	          0.18240136	          0.05906664	          0.07402726	          0.11133689	          0.02794974	          0.01000000	          0.05985564	          0.01025829	          0.01000000	          0.43594942	          0.16186988	          0.00999999	          0.01000000	          0.02879548	          0.04749000	          0.02927085	          0.08646398	          0.01658187	          0.24805541	          0.01000001	          0.01000001	          0.11874416	          0.14838561	          0.01183605	
          0.05508562	         -4.75266535	         -0.76259988	          6.96991819	          0.07884253	          0.82210133	         -0.00992785	         28.62366046	         -0.33647795	         -0.87543953	        -11.97697524	          3.31967207	          0.21202973	        -13.42195063	         -0.34585548	          2.34493801	        -19.47080581	          2.38353374	         33.19618764	         -5.80642393	          1.64844731	         -6.01306445	          0.09442684	          0.06613851	          0.01000000	          0.14604464	          0.18303703	          0.05756766	          0.06254317	          0.10002100	          0.02361381	          0.01000000	          0.10520679	          0.01000001	          0.01000000	          0.44437068	          0.17747666	          0.00999999	          0.01000000	          0.02432834	          0.07512429	          0.02473581	          0.07305054	          0.01400947	          0.21766250	          0.01000001	          0.01000000	          0.10032299	          0.12536605	          0.00999999	
          0.06610274	         -4.73737816	         -0.76735854	          6.76208503	          0.09426962	          0.82269702	         -0.00928019	         28.04561782	         -0.03074246	         -0.37704403	        -12.82931335	          3.14094084	          0.19781270	        -12.27995190	         -0.37787944	          1.61186196	        -23.21928145	          1.09095318	         32.90740317	         -5.65085637	          2.10741145	         -6.13611336	          0.08516812	          0.05587823	          0.01000000	          0.15810394	          0.17468195	          0.05545923	          0.05284065	          0.08717280	          0.01995052	          0.01000000	          0.14282512	          0.01000004	          0.01000002	          0.43786330	          0.18784052	          0.00999999	          0.01000000	          0.02055420	          0.10534013	          0.02090049	          0.06171799	          0.01183613	          0.18389582	          0.01000000	          0.00999999	          0.08475955	          0.10591760	          0.00999999	
